<?xml version="1.0" encoding="UTF-8" standalone="no"?>
<!-- Created with Inkscape (http://www.inkscape.org/) -->

<svg
   xmlns:dc="http://purl.org/dc/elements/1.1/"
   xmlns:cc="http://creativecommons.org/ns#"
   xmlns:rdf="http://www.w3.org/1999/02/22-rdf-syntax-ns#"
   xmlns:svg="http://www.w3.org/2000/svg"
   xmlns="http://www.w3.org/2000/svg"
   xmlns:sodipodi="http://sodipodi.sourceforge.net/DTD/sodipodi-0.dtd"
   xmlns:inkscape="http://www.inkscape.org/namespaces/inkscape"
   version="1.1"
   id="svg3680"
   width="227"
   height="71"
   viewBox="0 0 227 71"
   sodipodi:docname="logo.svg"
   inkscape:version="0.92.1 r15371">
  <metadata
     id="metadata3686">
    <rdf:RDF>
      <cc:Work
         rdf:about="">
        <dc:format>image/svg+xml</dc:format>
        <dc:type
           rdf:resource="http://purl.org/dc/dcmitype/StillImage" />
      </cc:Work>
    </rdf:RDF>
  </metadata>
  <defs
     id="defs3684" />
  <sodipodi:namedview
     pagecolor="#ffffff"
     bordercolor="#666666"
     borderopacity="1"
     objecttolerance="10"
     gridtolerance="10"
     guidetolerance="10"
     inkscape:pageopacity="0"
     inkscape:pageshadow="2"
     inkscape:window-width="1920"
     inkscape:window-height="1027"
     id="namedview3682"
     showgrid="false"
     showguides="false"
     inkscape:zoom="6.4581498"
     inkscape:cx="99.944019"
     inkscape:cy="6.4489636"
     inkscape:window-x="-8"
     inkscape:window-y="-8"
     inkscape:window-maximized="1"
     inkscape:current-layer="layer1" />
  <g
     inkscape:groupmode="layer"
     id="layer1"
     inkscape:label="New">
    <path
       style="fill:#808080"
       d="M 98.668329,66.245014 C 21.944715,66.042978 1.9228725,65.731488 2.2518316,64.745014 2.8963778,62.812165 191.99079,62.541564 194.6277,64.469718 c 1.02804,0.751718 1.64486,1.516052 1.37073,1.698521 -0.27414,0.182469 -44.07268,0.217017 -97.330101,0.07677 z M 8,39.142261 C 8,38.605585 11.7125,35.579043 16.25,32.41661 20.7875,29.254178 28.775,23.409275 34,19.427937 43.271375,12.363349 44.642439,11.63727 48.25,11.881517 51.03379,12.069992 50.276081,14 47.418297,14 c -1.435806,0 -4.431815,1.490776 -6.75,3.358714 C 36.97321,20.336127 12.481384,37.51108 9.25,39.390872 8.5625,39.790811 8,39.678936 8,39.142261 Z M 131,38.337578 C 111.40047,36.420474 101.01407,33.771854 83.346728,26.185585 71.808996,21.23134 63.777862,18.184955 52,14.295085 50.882114,13.925882 51.08365,13.574786 52.791135,12.916848 55.343162,11.933486 66.780623,15.250699 82.5,21.533325 c 4.95,1.978386 9.675,3.853267 10.5,4.166403 0.825,0.313135 0.6,-0.151891 -0.5,-1.033392 -2.601611,-2.084839 -1.446745,-2.08545 2.923245,-0.0015 1.920104,0.915634 3.272454,2.018563 3.005222,2.450954 -0.710244,1.149198 10.568113,4.403134 22.071533,6.367889 13.61804,2.325927 34.33876,3.174208 56.45398,2.311157 16.93526,-0.660903 20.13985,-0.555284 18.95968,0.624886 C 194.10118,38.23215 144.81073,39.688457 131,38.337578 Z M 209,36.5 c -1.925,-0.741314 -5.4125,-1.382079 -7.75,-1.423922 -2.3375,-0.04184 -4.25,-0.477933 -4.25,-0.969089 0,-1.443569 2.47901,-1.985286 6.62686,-1.448108 2.13023,0.275881 4.99814,0.06626 6.37314,-0.465821 2.43099,-0.940717 2.3963,-0.987447 -1.2566,-1.692772 -3.86067,-0.74544 -7.82739,-0.384852 -11.10973,1.009913 -1.6348,0.694673 -1.73046,0.539178 -0.77111,-1.253387 1.18652,-2.217034 5.88166,-4.22964 10.03666,-4.302285 3.07188,-0.05371 18.08489,7.125205 17.72678,8.476577 C 223.86016,37.321109 214.38862,38.575148 209,36.5 Z m -17,-3.352117 c 0,-0.468664 1.11351,-2.381164 2.47447,-4.25 5.5102,-7.566465 5.82674,-11.925821 0.52178,-7.185839 -2.68495,2.399005 -3.39625,3.7976 -3.39625,6.677919 0,4.309782 -1.97767,4.337471 -2.35883,0.03302 -0.44897,-5.070141 3.59209,-10.484349 11.27434,-15.105381 3.82417,-2.300317 7.11729,-4.0181397 7.31805,-3.8173847 0.20075,0.200755 0.0472,2.2458707 -0.34115,4.5447007 -0.54756,3.241005 -2.14194,5.744242 -7.09928,11.146165 C 196.87691,29.022648 194,32.57211 194,33.07878 194,33.585451 193.55,34 193,34 c -0.55,0 -1,-0.383453 -1,-0.852117 z M 68.294076,31.721337 c -4.996889,-1.903627 -6.20063,-3.555915 -3.852946,-5.288658 3.100519,-2.288384 4.763266,-0.470122 7.127968,1.455518 1.612024,1.312715 -3.322776,0.776833 -2.745774,-0.251647 0.46277,-0.824866 -0.609352,-2.120186 -1.974927,-1.655324 -7.917204,2.695137 3.638443,6.063998 14.354843,6.105308 6.799208,0.02621 9.363732,-1.253123 8.697907,-0.586534 -1.481607,1.483309 -17.854236,1.651026 -21.607071,0.221337 z m 55.802254,-4.650459 c -2.21693,-4.517489 -2.35152,-5.640033 -1.73233,-14.448716 0.95831,-13.6331727 1.98764,-15.381011 5.57963,-9.4744501 4.12357,6.7806581 5.58791,15.3247491 3.66949,21.4106621 -2.16944,6.882264 -3.76524,7.1575 -1.998,0.344606 1.38088,-5.323436 0.65095,-11.662275 -2.09497,-18.1928812 -1.22983,-2.9249209 -1.24793,-2.9306677 -1.83242,-0.5820921 -1.97721,7.9446583 -1.90524,15.5918493 0.19134,20.3315263 2.37663,5.372763 2.41978,5.546663 1.37093,5.524918 -0.4125,-0.0086 -1.83165,-2.21966 -3.15367,-4.913573 z M 108.63837,28.5 c -0.66664,-1.737248 0.19364,-4.5 1.40123,-4.5 0.45409,0 1.11,0.895973 1.45756,1.991051 1.06227,3.346924 -1.6304,5.710083 -2.85879,2.508949 z m 8.3949,-4.6849 c -0.0183,-0.376696 0.42227,-1.883051 0.97903,-3.347456 2.30675,-6.067196 -3.27595,-15.3712399 -8.44478,-14.0739475 -4.34431,1.0903525 -8.16988,10.6039465 -5.38419,13.3896365 0.65084,0.650834 0.83904,1.527626 0.41824,1.948428 C 103.45233,22.881 101,18.984363 101,16.009039 c 0,-3.461175 4.93743,-10.9537549 7.67091,-11.6406356 7.79275,-1.9582051 15.69053,11.3628536 10.46257,17.6470576 -1.13682,1.366496 -2.08191,2.176334 -2.10021,1.799639 z M 87.682087,18.892301 C 87.058817,16.508914 87.789548,14 89.106989,14 c 1.160015,0 1.16597,5.713268 0.0067,6.429736 -0.48747,0.301273 -1.131692,-0.390573 -1.431602,-1.537435 z M 81.921053,17.25 C 81.87389,16.204562 81.639036,16.003259 81.337719,16.75 80.46975,18.901054 79,18.115165 79,15.5 c 0,-2.663251 1.815617,-3.284383 3.8,-1.3 1.453137,1.453137 1.59259,4.8 0.2,4.8 -0.55,0 -1.035526,-0.7875 -1.078947,-1.75 z M 90.443588,14.166645 83.5,9.3332895 80,11.416645 C 78.075,12.56249 76.5,14.1375 76.5,14.916667 76.5,15.695833 75.9375,16.520833 75.25,16.75 74.5625,16.979167 74,16.496295 74,15.676953 c 0,-0.997384 -0.660972,-1.316866 -2,-0.966702 -3.509213,0.91768 -2.148418,-0.714374 2.25,-2.698513 2.3375,-1.054453 5.469615,-2.7068367 6.960257,-3.6719644 2.674362,-1.7315379 2.767068,-1.7116462 7,1.5019711 C 90.569615,11.632957 93.9625,14.020782 95.75,15.148023 98.793832,17.067537 100.01973,19 98.193588,19 c -0.443526,0 -3.931026,-2.17501 -7.75,-4.833355 z"
       id="path3731"
       inkscape:connector-curvature="0"
       sodipodi:nodetypes="csccccssssssssssssscscssscsscsssscsscssssscsccssssssssssssssccsccccscsccscsccsccscsscssssssscsssssssssss" />
    <text
       xml:space="preserve"
       style="font-style:normal;font-variant:normal;font-weight:normal;font-stretch:normal;font-size:21.33333397px;line-height:125%;font-family:Verdana;-inkscape-font-specification:'Verdana, Normal';font-variant-ligatures:normal;font-variant-caps:normal;font-variant-numeric:normal;font-feature-settings:normal;text-align:start;letter-spacing:0px;word-spacing:-2px;writing-mode:lr-tb;text-anchor:start;fill:#000000;fill-opacity:1;stroke:none;stroke-width:1px;stroke-linecap:butt;stroke-linejoin:miter;stroke-opacity:1"
       x="3.5944049"
       y="60.326828"
       id="text3735"><tspan
         sodipodi:role="line"
         id="tspan3733"
         x="3.5944049"
         y="60.326828"><tspan
           style="fill:#808080"
           id="tspan4552">Les Gîtes de l'</tspan><tspan
           style="font-style:normal;font-variant:normal;font-weight:normal;font-stretch:normal;font-size:21.33333397px;font-family:Verdana;-inkscape-font-specification:'Verdana, Normal';font-variant-ligatures:normal;font-variant-caps:normal;font-variant-numeric:normal;font-feature-settings:normal;text-align:start;writing-mode:lr-tb;text-anchor:start;fill:#3da50f;fill-opacity:1"
           id="tspan3745">Etang</tspan></tspan></text>
  </g>
</svg>
